<svg xmlns="http://www.w3.org/2000/svg" width="55.446" height="55.446" viewBox="0 0 55.446 55.446"><path d="M50.485,255.164l-2.238-.777a5.4,5.4,0,0,0,2.059-4.244V248.5a5.413,5.413,0,1,0-10.827,0v1.64a5.405,5.405,0,0,0,2.059,4.244l-2.239.777a7.372,7.372,0,0,0-3.507,2.58H29.746v-2.386a7.387,7.387,0,0,0-4.961-6.973l-2.239-.777a5.405,5.405,0,0,0,2.059-4.244v-1.64a5.413,5.413,0,1,0-10.827,0v1.64a5.406,5.406,0,0,0,2.059,4.244l-2.238.777a7.387,7.387,0,0,0-4.961,6.973v2.386H.82a.82.82,0,0,0-.82.82v6.78a.82.82,0,0,0,.82.82H34.94a.746.746,0,0,1,.219,0H54.625a.82.82,0,0,0,.82-.82v-3.206a7.387,7.387,0,0,0-4.961-6.973ZM41.119,248.5a3.773,3.773,0,1,1,7.546,0v1.64a3.773,3.773,0,0,1-7.546,0Zm-25.7-6.78a3.773,3.773,0,0,1,7.546,0v1.64a3.773,3.773,0,1,1-7.546,0Zm5.494,7.054.8.277-2.518,4.369-2.518-4.369.8-.277Zm-10.634,6.581a5.746,5.746,0,0,1,3.858-5.424l.959-.333,3.385,5.873a.82.82,0,0,0,1.421,0l3.385-5.873.959.333a5.746,5.746,0,0,1,3.858,5.424v2.386H10.279ZM1.64,259.384H34.873a7.356,7.356,0,0,0-.534,2.753v2.386H1.64Zm52.165,5.14H35.979v-2.386a5.746,5.746,0,0,1,3.858-5.424l3.334-1.157h3.442l3.334,1.157a5.746,5.746,0,0,1,3.858,5.424Zm0,0" transform="translate(0.001 -210.718)" fill="#5a735b"/><path d="M50.251,5.905H41.919a.82.82,0,0,0,0,1.64h8.332A3.558,3.558,0,0,1,53.805,11.1V22.474a3.558,3.558,0,0,1-3.554,3.554H38.987a.82.82,0,0,0-.82.82v3.488L34.1,26.268a.82.82,0,0,0-.58-.24H26.848a3.559,3.559,0,0,1-3.555-3.554V11.1a3.558,3.558,0,0,1,3.555-3.554H38.084a.82.82,0,1,0,0-1.64H33.792V5.195A5.2,5.2,0,0,0,28.6,0H5.194A5.2,5.2,0,0,0,0,5.195V7.008a.82.82,0,0,0,1.64,0V5.195A3.558,3.558,0,0,1,5.194,1.64H28.6a3.558,3.558,0,0,1,3.554,3.554v.711h-5.3A5.2,5.2,0,0,0,21.653,11.1v9.022H13.068a.82.82,0,0,0-.82.82v3.488L8.18,20.362a.82.82,0,0,0-.58-.24H5.194A3.558,3.558,0,0,1,1.64,16.568V10.822a.82.82,0,0,0-1.64,0v5.746a5.2,5.2,0,0,0,5.195,5.195H7.26l5.228,5.228a.82.82,0,0,0,1.4-.58V21.763h7.765v.711a5.2,5.2,0,0,0,5.195,5.194h6.331L38.407,32.9a.82.82,0,0,0,1.4-.58V27.668H50.251a5.2,5.2,0,0,0,5.195-5.194V11.1a5.2,5.2,0,0,0-5.195-5.195Zm0,0" transform="translate(0.001 0)" fill="#5a735b"/></svg>