<svg xmlns="http://www.w3.org/2000/svg" width="56.968" height="56.968" viewBox="0 0 56.968 56.968"><defs><style>.a{fill:#5a735b;}</style></defs><g transform="translate(0)"><path class="a" d="M248.5,301.863a.835.835,0,0,0,.835.835h4.5a.835.835,0,1,0,0-1.669h-4.5A.835.835,0,0,0,248.5,301.863Z" transform="translate(-220.85 -267.534)"/><path class="a" d="M321.232,301.863a.834.834,0,0,0,.835.835h10.678a.835.835,0,1,0,0-1.669H322.066A.835.835,0,0,0,321.232,301.863Z" transform="translate(-285.49 -267.534)"/><path class="a" d="M382.12,333.354h-4.5a.835.835,0,0,0,0,1.669h4.5a.835.835,0,1,0,0-1.669Z" transform="translate(-334.866 -296.263)"/><path class="a" d="M249.334,335.023h10.678a.835.835,0,1,0,0-1.669H249.334a.835.835,0,1,0,0,1.669Z" transform="translate(-220.85 -296.263)"/><path class="a" d="M48.313,92.1a.835.835,0,0,0-.834.834v7.838a.835.835,0,0,0,.834.835H93.046a.835.835,0,0,0,.834-.835V67.505a.835.835,0,0,0-.834-.834H48.313a.835.835,0,0,0-.834.834V89.032a.834.834,0,1,0,1.669,0V68.34H92.212v31.6H49.147v-7a.835.835,0,0,0-.834-.834Z" transform="translate(-42.195 -59.253)"/><path class="a" d="M56.134,0H12.259a.834.834,0,1,0,0,1.669H55.3V3.822H1.669V1.669H8.361A.834.834,0,1,0,8.361,0H.835A.835.835,0,0,0,0,.834V4.656a.835.835,0,0,0,.834.834h.851V45.119a.835.835,0,0,0,.834.834H27.65v5.886a2.633,2.633,0,1,0,1.669,0V45.953H54.448a.835.835,0,0,0,.834-.834V13.531a.834.834,0,1,0-1.669,0V44.284H3.355V5.491H53.613V9.633a.834.834,0,1,0,1.669,0V5.491h.851a.835.835,0,0,0,.834-.834V.834A.834.834,0,0,0,56.134,0ZM28.484,55.3a.964.964,0,1,1,.964-.964A.965.965,0,0,1,28.484,55.3Z" transform="translate(0)"/><path class="a" d="M88.505,107.077a8.7,8.7,0,1,0,6.147,14.861l.007-.006a8.7,8.7,0,0,0-6.153-14.856Zm6.982,7.868H89.34V108.8A7.045,7.045,0,0,1,95.487,114.945Zm-6.982,7.868a7.033,7.033,0,0,1-.834-14.017v6.984a.834.834,0,0,0,.244.59l4.939,4.939A6.98,6.98,0,0,1,88.505,122.813Zm5.528-2.685-3.514-3.514h4.97A6.96,6.96,0,0,1,94.033,120.127Z" transform="translate(-70.924 -95.163)"/><path class="a" d="M257.982,178.348a.835.835,0,0,0,.835-.834v-8.992a.835.835,0,0,0-.835-.835h-3.6a.835.835,0,0,0-.835.835v8.992a.835.835,0,0,0,.835.834Zm-2.762-8.992h1.928v7.323H255.22Z" transform="translate(-225.339 -149.029)"/><path class="a" d="M322.632,137.382h-3.6a.835.835,0,0,0-.835.834V150.58a.835.835,0,0,0,.835.834h3.6a.835.835,0,0,0,.835-.834V138.216A.835.835,0,0,0,322.632,137.382Zm-.835,12.364H319.87V139.051H321.8Z" transform="translate(-282.796 -122.096)"/><path class="a" d="M387.283,117.3a.834.834,0,0,0,.834-.834V99.831a.834.834,0,0,0-.834-.834h-3.6a.835.835,0,0,0-.834.834v16.635a.835.835,0,0,0,.834.834Zm-2.762-16.635h1.928v14.966h-1.928Z" transform="translate(-340.254 -87.981)"/><path class="a" d="M129.021,301.028h-5.957a.835.835,0,0,0,0,1.669h5.957a.835.835,0,1,0,0-1.669Z" transform="translate(-108.629 -267.534)"/><path class="a" d="M211.124,301.863v3.6a.834.834,0,1,0,1.669,0v-3.6a.834.834,0,1,0-1.669,0Z" transform="translate(-187.633 -267.534)"/><path class="a" d="M80.637,302.7h1.124a.835.835,0,1,0,0-1.669H80.637a.835.835,0,0,0,0,1.669Z" transform="translate(-70.924 -267.534)"/><path class="a" d="M129.021,333.354h-5.957a.835.835,0,0,0,0,1.669h5.957a.835.835,0,1,0,0-1.669Z" transform="translate(-108.629 -296.263)"/><path class="a" d="M80.637,335.023h1.124a.835.835,0,1,0,0-1.669H80.637a.835.835,0,1,0,0,1.669Z" transform="translate(-70.924 -296.263)"/></g></svg>