<svg xmlns="http://www.w3.org/2000/svg" width="52.62" height="52.62" viewBox="0 0 52.62 52.62"><defs><style>.a{fill:#5a735b;}</style></defs><g transform="translate(3.998 3.959)"><path class="a" d="M86.575,43.289a.95.95,0,0,0-.95.95V85.28H78.032V83.142h4.545a.95.95,0,0,0,.95-.95V65.4a.95.95,0,0,0-.95-.95H78.519v-2.1h4.058a.95.95,0,0,0,.95-.95V39.468a.95.95,0,0,0-.95-.95H63.214a.95.95,0,0,0-.95.95V53.224h-2.1V39.468a.95.95,0,0,0-.95-.95H39.853a.95.95,0,0,0-.95.95V61.4a.95.95,0,0,0,.95.95h3.434a.95.95,0,0,0,0-1.9H40.8V58.284h4.03a6.1,6.1,0,0,0,6.093-6.093V40.417h7.341V54.173a.95.95,0,0,0,.95.95h4a.95.95,0,0,0,.95-.95V40.417H81.627V42.86H79.12a.95.95,0,0,0-.95.95V56.852a.95.95,0,0,0,.95.95h2.508v2.652H77.569a.95.95,0,0,0-.95.95v4a.95.95,0,0,0,.95.95h4.058V81.242H77.082a.95.95,0,0,0-.95.95V86.23a.95.95,0,0,0,.95.95h9.492a.95.95,0,0,0,.95-.95V44.239A.949.949,0,0,0,86.575,43.289Zm-37.55,8.9h0a4.2,4.2,0,0,1-4.193,4.193H40.8V40.417H41.5v.614a.95.95,0,1,0,1.9,0v-.614h.57V42.93a.95.95,0,1,0,1.9,0V40.417h.57v.614a.95.95,0,1,0,1.9,0v-.614h.693V52.191Zm32.6,3.711H80.069V44.76h1.558Z" transform="translate(-38.903 -38.518)"/></g><g transform="translate(0 0)"><path class="a" d="M51.67,0H.95A.95.95,0,0,0,0,.951V51.671a.95.95,0,0,0,.95.95H34.529a.95.95,0,0,0,.95-.95V47.634a.95.95,0,0,0-.95-.95h-5.27V37.439a.95.95,0,0,0-.95-.95h-4a.95.95,0,0,0-.95.95v9.245H5.9V44.508H8.785a2.614,2.614,0,0,0,2.153-1.134,6.017,6.017,0,0,0,2.772.657c2.962,0,5.372-2.071,5.372-4.616a4.127,4.127,0,0,0-.625-2.167.95.95,0,1,0-1.616,1,2.2,2.2,0,0,1,.342,1.169c0,1.5-1.558,2.716-3.473,2.716a4.053,4.053,0,0,1-2.309-.695V37.394A4.054,4.054,0,0,1,13.71,36.7a4.2,4.2,0,0,1,1.571.3.95.95,0,0,0,.707-1.763A6.085,6.085,0,0,0,13.71,34.8a6.017,6.017,0,0,0-2.772.657,2.614,2.614,0,0,0-2.153-1.133H5.9V31.792h26.21a.95.95,0,0,0,.95-.95v-4a.95.95,0,0,0-.95-.95H11.421a.95.95,0,0,0,0,1.9H31.158v2.1H4.948a.95.95,0,0,0-.95.95V47.633a.95.95,0,0,0,.95.95H24.311a.95.95,0,0,0,.95-.95V38.388h2.1v9.245a.95.95,0,0,0,.95.95h5.27v2.138H1.9V1.9H50.721V6.3a.95.95,0,1,0,1.9,0V.951A.95.95,0,0,0,51.67,0ZM5.9,36.224H8.785a.718.718,0,0,1,.717.717v4.951a.718.718,0,0,1-.717.717H5.9Z" transform="translate(0 -0.001)"/></g><g transform="translate(31.735 8.301)"><path class="a" d="M316.745,80.77h-7.011a.95.95,0,0,0-.95.95V94.761a.95.95,0,0,0,.95.95h7.011a.95.95,0,0,0,.95-.95V81.72A.95.95,0,0,0,316.745,80.77Zm-.95,9.94h-1.811V85.771H315.8Zm0-6.837h-2.761a.95.95,0,0,0-.95.95v6.837a.95.95,0,0,0,.95.95H315.8v1.2h-5.111V82.669H315.8Z" transform="translate(-308.785 -80.77)"/></g><g transform="translate(12.496 38.465)"><ellipse class="a" cx="0.95" cy="0.95" rx="0.95" ry="0.95"/></g><g transform="translate(9.06 17.424)"><ellipse class="a" cx="0.95" cy="0.95" rx="0.95" ry="0.95"/></g></svg>