<svg xmlns="http://www.w3.org/2000/svg" width="49.937" height="53.302" viewBox="0 0 49.937 53.302"><defs><style>.a{fill:#5a735b;}</style></defs><ellipse class="a" cx="1.052" cy="1.052" rx="1.052" ry="1.052" transform="translate(4.041 2.884)"/><ellipse class="a" cx="1.052" cy="1.052" rx="1.052" ry="1.052" transform="translate(8.353 2.884)"/><ellipse class="a" cx="1.052" cy="1.052" rx="1.052" ry="1.052" transform="translate(12.664 2.884)"/><path class="a" d="M51.669,0H19.026a2.866,2.866,0,0,0-2.863,2.863v35.93a.781.781,0,1,0,1.562,0V7.871H52.97v8a.781.781,0,1,0,1.562,0V2.863A2.866,2.866,0,0,0,51.669,0ZM17.725,6.31V2.863a1.3,1.3,0,0,1,1.3-1.3H51.669a1.3,1.3,0,0,1,1.3,1.3V6.31Z" transform="translate(-16.163 0)"/><path class="a" d="M53.751,180.021a.781.781,0,0,0-.781.781v30.917a1.3,1.3,0,0,1-1.3,1.3H19.026a1.3,1.3,0,0,1-1.3-1.3v-8a.781.781,0,0,0-1.562,0v8a2.866,2.866,0,0,0,2.863,2.863H51.669a2.866,2.866,0,0,0,2.863-2.863V180.8A.781.781,0,0,0,53.751,180.021Z" transform="translate(-16.163 -161.28)"/><path class="a" d="M117.738,103.588a.781.781,0,1,0,0-1.562H97.757a.781.781,0,1,0,0,1.562Z" transform="translate(-88.563 -91.405)"/><path class="a" d="M153.938,194.961H138.163a.781.781,0,1,0,0,1.562h15.775a.781.781,0,0,0,0-1.562Z" transform="translate(-124.762 -174.664)"/><path class="a" d="M138.163,236.93h11.463a.781.781,0,0,0,0-1.562H138.163a.781.781,0,1,0,0,1.562Z" transform="translate(-124.762 -210.865)"/><path class="a" d="M76.772,143.214a.781.781,0,0,0,.781.781h24.188a.781.781,0,0,0,0-1.562H77.553a.781.781,0,0,0-.781.781Z" transform="translate(-70.462 -127.605)"/><path class="a" d="M55.559,195.742v4.207a.781.781,0,0,0,.781.781h4.207a.781.781,0,0,0,.781-.781v-4.207a.781.781,0,0,0-.781-.781H56.34A.781.781,0,0,0,55.559,195.742Zm1.562.781h2.645v2.645H57.121Z" transform="translate(-51.458 -174.664)"/><path class="a" d="M153.938,295.978H138.163a.781.781,0,1,0,0,1.562h15.775a.781.781,0,0,0,0-1.562Z" transform="translate(-124.762 -265.165)"/><path class="a" d="M138.163,337.946h11.463a.781.781,0,0,0,0-1.562H138.163a.781.781,0,1,0,0,1.562Z" transform="translate(-124.762 -301.364)"/><path class="a" d="M55.559,300.964a.781.781,0,0,0,.781.781h4.207a.781.781,0,0,0,.781-.781v-4.207a.781.781,0,0,0-.781-.781H56.34a.781.781,0,0,0-.781.781Zm1.562-3.426h2.645v2.645H57.121Z" transform="translate(-51.458 -265.164)"/><path class="a" d="M154.718,397.775a.781.781,0,0,0-.781-.781H138.163a.781.781,0,1,0,0,1.562h15.775A.781.781,0,0,0,154.718,397.775Z" transform="translate(-124.762 -355.665)"/><path class="a" d="M138.163,437.4a.781.781,0,0,0,0,1.562h11.463a.781.781,0,0,0,0-1.562Z" transform="translate(-124.762 -391.864)"/><path class="a" d="M55.559,401.981a.781.781,0,0,0,.781.781h4.207a.781.781,0,0,0,.781-.781v-4.207a.781.781,0,0,0-.781-.781H56.34a.781.781,0,0,0-.781.781Zm1.562-3.426h2.645V401.2H57.121Z" transform="translate(-51.458 -355.665)"/><path class="a" d="M429.127,107.115h-.166v-4.267a1.835,1.835,0,0,0-1.833-1.832h-2.1a1.835,1.835,0,0,0-1.832,1.832v4.267h-.166a.781.781,0,0,0-.781.781v31.444a.781.781,0,0,0,.18.5l3.05,3.681a.781.781,0,0,0,1.2,0l3.05-3.681a.781.781,0,0,0,.18-.5V128.762a.781.781,0,1,0-1.562,0v10.3l-2.269,2.738-2.269-2.738V122.979h4.538v2.135a.781.781,0,1,0,1.562,0V107.9A.781.781,0,0,0,429.127,107.115Zm-5.319,1.562H425.3v6.37a.781.781,0,0,0,1.562,0v-6.37h1.488v9.586h-4.538Zm.946-5.829a.271.271,0,0,1,.271-.271h2.1a.271.271,0,0,1,.271.271v4.267h-2.645v-4.267Zm-.946,18.569v-1.593h4.538v1.593Z" transform="translate(-379.971 -90.499)"/></svg>